<svg width="341" height="349" viewBox="0 0 341 349" fill="none" xmlns="http://www.w3.org/2000/svg">
<g id="cooplogo-start">
<path id="topright-path" d="M277.5 72C316.5 117.167 376.2 234.8 303 344" stroke="black" stroke-width="5"/>
<path id="bottomright-path" d="M277.5 265.5C233 311.333 118.9 386.1 18.5 318.5" stroke="black" stroke-width="5"/>
<path id="bottomleft-path" d="M76.5 267C47.8333 244.333 -6.70004 180.8 4.49996 108C18.5 17 98 -3.00002 144 33" stroke="black" stroke-width="5"/>
<path id="topleft-path" d="M74.5 65.5C79.3333 41.3333 105.7 -4.69999 172.5 4.50001C239.3 13.7 241.333 89 234 125.5" stroke="black" stroke-width="5"/>
<g id="topleft-shape">
<path id="Vector 6" d="M82.2764 39.1467C78.0074 36.6293 69.317 36 65.5055 36C64.235 36 60.6267 36.1573 56.3577 36.7867C51.0215 37.5733 44.923 39.9333 41.1115 46.2267C37.2999 52.52 38.0622 63.5333 38.0622 69.8267C38.0622 76.12 41.1115 81.6267 44.923 85.56C48.7346 89.4933 56.3577 91.0667 62.4562 91.0667C68.5547 91.0667 74.6532 90.28 79.9894 88.7067C85.3256 87.1333 90.6618 81.6267 92.1864 75.3333C93.711 69.04 92.9487 58.8133 92.1864 53.3067C91.4241 47.8 87.6125 42.2933 82.2764 39.1467Z" fill="#08B0EB"/>
</g>
<g id="topright-shape">
<path id="Vector 6_2" d="M297.036 39.1467C292.767 36.6293 284.077 36 280.265 36C278.995 36 275.387 36.1573 271.118 36.7867C265.782 37.5733 259.683 39.9333 255.871 46.2267C252.06 52.52 252.822 63.5333 252.822 69.8267C252.822 76.12 255.871 81.6267 259.683 85.56C263.495 89.4933 271.118 91.0667 277.216 91.0667C283.315 91.0667 289.413 90.28 294.749 88.7067C300.086 87.1333 305.422 81.6267 306.946 75.3333C308.471 69.04 307.709 58.8133 306.946 53.3067C306.184 47.8 302.373 42.2933 297.036 39.1467Z" fill="#08B0EB"/>
</g>
<g id="bottomright-shape">
<path id="Vector 6_3" d="M297.036 253.907C292.767 251.389 284.077 250.76 280.265 250.76C278.995 250.76 275.387 250.917 271.118 251.547C265.782 252.333 259.683 254.693 255.871 260.987C252.06 267.28 252.822 278.293 252.822 284.587C252.822 290.88 255.871 296.387 259.683 300.32C263.495 304.253 271.118 305.827 277.216 305.827C283.315 305.827 289.413 305.04 294.749 303.467C300.086 301.893 305.422 296.387 306.946 290.093C308.471 283.8 307.709 273.573 306.946 268.067C306.184 262.56 302.373 257.053 297.036 253.907Z" fill="#08B0EB"/>
</g>
<g id="bottomleft-shape">
<path id="Vector 6_4" d="M82.2764 253.907C78.0074 251.389 69.317 250.76 65.5055 250.76C64.235 250.76 60.6267 250.917 56.3577 251.547C51.0215 252.333 44.923 254.693 41.1115 260.987C37.2999 267.28 38.0622 278.293 38.0622 284.587C38.0622 290.88 41.1115 296.387 44.923 300.32C48.7346 304.253 56.3577 305.827 62.4562 305.827C68.5547 305.827 74.6532 305.04 79.9894 303.467C85.3256 301.893 90.6618 296.387 92.1864 290.093C93.711 283.8 92.9487 273.573 92.1864 268.067C91.4241 262.56 87.6125 257.053 82.2764 253.907Z" fill="#08B0EB"/>
</g>
</g>
</svg>
