<svg width="410" height="434" viewBox="0 0 410 434" fill="none" xmlns="http://www.w3.org/2000/svg">
<g id="coop-logo">
<path id="p" d="M272.242 434H210.625C210.625 390.243 211.16 297.37 213.304 275.938C215.983 249.148 226.699 227.716 242.773 219.679C265.185 208.473 282.958 206.284 309.748 206.284C336.538 206.284 366.007 206.284 390.118 233.074C406.339 251.097 409.764 284.868 408.871 300.049C408.871 329.519 404.049 353.094 384.76 372.383C365.471 391.672 326.715 394.708 309.748 393.815L290.995 340.235C312.427 342.914 336.538 345.593 344.575 324.16C352.612 302.728 347.254 281.296 344.575 275.938C341.896 270.58 339.217 257.185 304.39 257.185C276.528 257.185 272.242 280.403 272.242 294.691V434Z" fill="#08B0EB"/>
<path id="c" d="M138.291 96.4445L199.908 96.4445C202.052 68.5828 192.764 49.1153 189.192 42.8643C167.76 5.6982e-05 130.254 2.67907 90.0689 2.67907C49.8837 2.67907 28.4517 16.0742 15.0566 34.8272C5.08599 48.786 -11.7335 117.877 12.3776 152.704C36.4887 187.531 44.5258 192.889 108.822 192.889C153.829 192.889 186.513 171.457 194.55 133.951L138.291 109.84C138.291 123.235 124.896 141.988 90.0689 139.309C62.2072 137.165 63.2788 109.84 63.2788 91.0865C63.2788 78.5526 66.4937 56.2594 100.785 56.2594C135.076 56.2594 140.077 82.1564 138.291 96.4445Z" fill="#08B0EB"/>
<path id="o-1" fill-rule="evenodd" clip-rule="evenodd" d="M309.65 0C323.002 0 353.442 2.20444 368.396 11.0222C387.088 22.0444 400.439 41.3333 403.109 60.6222C405.779 79.9111 408.45 115.733 403.109 137.778C397.769 159.822 379.077 179.111 360.385 184.622C341.693 190.133 320.331 192.889 298.969 192.889C277.607 192.889 250.905 187.378 237.554 173.6C224.202 159.822 213.521 140.533 213.521 118.489C213.521 115.55 213.474 112.316 213.423 108.868C213.094 86.451 212.631 54.9274 224.202 35.8222C237.554 13.7778 258.916 5.51111 277.607 2.75556C292.561 0.551111 305.2 0 309.65 0ZM310.799 53.6911C321.515 52.7981 344.019 56.9059 348.305 80.4812C352.592 104.057 348.305 118.88 345.626 123.345C343.84 126.917 338.661 134.597 332.231 136.74C324.194 139.419 310.799 139.419 302.762 139.419C294.725 139.419 284.009 134.061 278.651 126.024C273.293 117.987 270.614 99.2343 273.293 83.1602C275.972 67.0861 284.009 59.0491 292.046 56.3701C298.475 54.2269 307.227 53.6911 310.799 53.6911Z" fill="#08B0EB"/>
<path id="o-2" fill-rule="evenodd" clip-rule="evenodd" d="M100.687 203.605C114.039 203.605 144.48 205.809 159.433 214.627C178.125 225.649 191.476 244.938 194.146 264.227C196.816 283.516 199.487 319.338 194.146 341.383C188.806 363.427 170.114 382.716 151.422 388.227C132.73 393.738 111.368 396.494 90.0065 396.494C68.6445 396.494 41.942 390.983 28.5908 377.205C15.2395 363.427 4.55856 344.138 4.55856 322.094C4.55856 319.155 4.51108 315.921 4.46045 312.473C4.13132 290.056 3.66847 258.532 15.2395 239.427C28.5908 217.383 49.9528 209.116 68.6445 206.361C83.5979 204.156 96.2371 203.605 100.687 203.605ZM101.836 257.296C112.552 256.403 135.056 260.511 139.342 284.086C143.629 307.662 139.342 322.485 136.663 326.95C134.877 330.522 129.698 338.202 123.268 340.345C115.231 343.024 101.836 343.024 93.799 343.024C85.7619 343.024 75.0459 337.666 69.6879 329.629C64.3298 321.592 61.6508 302.839 64.3298 286.765C67.0089 270.691 75.0459 262.654 83.0829 259.975C89.5126 257.832 98.264 257.296 101.836 257.296Z" fill="#08B0EB"/>
</g>
</svg>
