<svg xmlns="http://www.w3.org/2000/svg" fill="none" viewBox="0 0 1440 1024">
    <g id="found-logo">
        <path id="BG" fill="#fff" d="M0 0h1440v1024H0z"/>
        <g id="coop-logo" fill="#08B0EB">
            <path id="p" d="M787.242 729h-61.617c0-43.757.535-136.63 2.679-158.062 2.679-26.79 13.395-48.222 29.469-56.259 22.412-11.206 40.185-13.395 66.975-13.395 26.79 0 56.259 0 80.37 26.79 16.221 18.023 19.646 51.794 18.753 66.975 0 29.47-4.822 53.045-24.111 72.334s-58.045 22.325-75.012 21.432l-18.753-53.58c21.432 2.679 45.543 5.358 53.58-16.075 8.037-21.432 2.679-42.864 0-48.222-2.679-5.358-5.358-18.753-40.185-18.753-27.862 0-32.148 23.218-32.148 37.506V729Z"/>
            <path id="c" d="M653.291 391.445h61.617c2.144-27.862-7.144-47.33-10.716-53.581-21.432-42.864-58.938-40.185-99.123-40.185s-61.617 13.395-75.012 32.148c-9.971 13.959-26.791 83.05-2.679 117.877 24.111 34.827 32.148 40.185 96.444 40.185 45.007 0 77.691-21.432 85.728-58.938l-56.259-24.111c0 13.395-13.395 32.148-48.222 29.469-27.862-2.144-26.79-29.469-26.79-48.222 0-12.534 3.215-34.828 37.506-34.828s39.292 25.897 37.506 40.186Z"/>
            <path id="o-1" fill-rule="evenodd" d="M824.65 295c13.352 0 43.792 2.204 58.746 11.022 18.692 11.022 32.043 30.311 34.713 49.6 2.67 19.289 5.341 55.111 0 77.156-5.34 22.044-24.032 41.333-42.724 46.844-18.692 5.511-40.054 8.267-61.416 8.267-21.362 0-48.064-5.511-61.415-19.289-13.352-13.778-24.033-33.067-24.033-55.111 0-2.939-.047-6.173-.098-9.621-.329-22.417-.792-53.941 10.779-73.046 13.352-22.044 34.714-30.311 53.405-33.066C807.561 295.551 820.2 295 824.65 295Zm1.149 53.691c10.716-.893 33.22 3.215 37.506 26.79 4.287 23.576 0 38.399-2.679 42.864-1.786 3.572-6.965 11.252-13.395 13.395-8.037 2.679-21.432 2.679-29.469 2.679-8.037 0-18.753-5.358-24.111-13.395-5.358-8.037-8.037-26.79-5.358-42.864 2.679-16.074 10.716-24.111 18.753-26.79 6.429-2.143 15.181-2.679 18.753-2.679Z" clip-rule="evenodd"/>
            <path id="o-2" fill-rule="evenodd" d="M615.687 498.605c13.352 0 43.793 2.204 58.746 11.022 18.692 11.022 32.043 30.311 34.713 49.6 2.67 19.289 5.341 55.111 0 77.156-5.34 22.044-24.032 41.333-42.724 46.844-18.692 5.511-40.054 8.267-61.416 8.267-21.361 0-48.064-5.511-61.415-19.289-13.351-13.778-24.032-33.067-24.032-55.111 0-2.94-.048-6.173-.099-9.621-.329-22.417-.792-53.941 10.78-73.046 13.351-22.044 34.713-30.311 53.405-33.067 14.953-2.204 27.592-2.755 32.042-2.755Zm1.149 53.691c10.716-.893 33.22 3.215 37.506 26.79 4.287 23.575 0 38.399-2.679 42.864-1.786 3.572-6.965 11.252-13.395 13.395-8.037 2.679-21.432 2.679-29.469 2.679-8.037 0-18.753-5.358-24.111-13.395-5.358-8.037-8.037-26.79-5.358-42.864 2.679-16.074 10.716-24.111 18.753-26.79 6.43-2.143 15.181-2.679 18.753-2.679Z" clip-rule="evenodd"/>
        </g>
        <g id="cooplogo-start">
            <path id="topright-path" stroke="none" stroke-width="5" d="M820.5 397c39 45.167 98.7 162.8 25.5 272"/>
            <path id="bottomright-path" stroke="none" stroke-width="5" d="M820.5 590.5c-44.5 45.833-158.6 120.6-259 53"/>
            <path id="bottomleft-path" stroke="none" stroke-width="5" d="M619.5 592c-28.667-22.667-83.2-86.2-72-159 14-91 93.5-111 139.5-75"/>
            <path id="topleft-path" stroke="none" stroke-width="5" d="M617.5 390.5c4.833-24.167 31.2-70.2 98-61 66.8 9.2 68.833 84.5 61.5 121"/>
            <g id="topleft-shape">
                <path id="Vector 6" fill="#08B0EB" d="M625.276 364.147c-4.269-2.518-12.959-3.147-16.771-3.147-1.27 0-4.878.157-9.147.787-5.336.786-11.435 3.146-15.247 9.44-3.811 6.293-3.049 17.306-3.049 23.6 0 6.293 3.049 11.8 6.861 15.733s11.435 5.507 17.533 5.507c6.099 0 12.197-.787 17.533-2.36 5.337-1.574 10.673-7.08 12.197-13.374 1.525-6.293.763-16.52 0-22.026-.762-5.507-4.573-11.014-9.91-14.16Z"/>
            </g>
            <g id="topright-shape">
                <path id="Vector 6_2" fill="#08B0EB" d="M840.036 364.147c-4.269-2.518-12.959-3.147-16.771-3.147-1.27 0-4.878.157-9.147.787-5.336.786-11.435 3.146-15.247 9.44-3.811 6.293-3.049 17.306-3.049 23.6 0 6.293 3.049 11.8 6.861 15.733s11.435 5.507 17.533 5.507c6.099 0 12.197-.787 17.533-2.36 5.337-1.574 10.673-7.08 12.197-13.374 1.525-6.293.763-16.52 0-22.026-.762-5.507-4.573-11.014-9.91-14.16Z"/>
            </g>
            <g id="bottomright-shape">
                <path id="Vector 6_3" fill="#08B0EB" d="M840.036 578.907c-4.269-2.518-12.959-3.147-16.771-3.147-1.27 0-4.878.157-9.147.787-5.336.786-11.435 3.146-15.247 9.44-3.811 6.293-3.049 17.306-3.049 23.6 0 6.293 3.049 11.8 6.861 15.733s11.435 5.507 17.533 5.507c6.099 0 12.197-.787 17.533-2.36 5.337-1.574 10.673-7.08 12.197-13.374 1.525-6.293.763-16.52 0-22.026-.762-5.507-4.573-11.014-9.91-14.16Z"/>
            </g>
            <g id="bottomleft-shape">
                <path id="Vector 6_4" fill="#08B0EB" d="M625.276 578.907c-4.269-2.518-12.959-3.147-16.771-3.147-1.27 0-4.878.157-9.147.787-5.336.786-11.435 3.146-15.247 9.44-3.811 6.293-3.049 17.306-3.049 23.6 0 6.293 3.049 11.8 6.861 15.733s11.435 5.507 17.533 5.507c6.099 0 12.197-.787 17.533-2.36 5.337-1.574 10.673-7.08 12.197-13.374 1.525-6.293.763-16.52 0-22.026-.762-5.507-4.573-11.014-9.91-14.16Z"/>
            </g>
        </g>
    </g>
</svg>